<svg width="73" height="64" viewBox="0 0 73 64" fill="none" xmlns="http://www.w3.org/2000/svg">
<path d="M6.8 10L0 20L17.7 41.7C27.4 53.7 35.7 63.5 36.2 63.5C37 63.5 39.6 60.5 60 35.2L72.4 19.9L65.6 10L58.7 0H36.2H13.6L6.8 10ZM20.7 12C17.7 17.9 17.5 18 13.4 18C11 18 9.1 17.8 9.1 17.5C9.1 17.2 10.7 14.5 12.7 11.5C16.1 6.5 16.7 6 20.1 6H23.8L20.7 12ZM45 11.5C46.7 14.5 48.1 17.2 48.1 17.5C48.1 17.8 42.7 18 36.1 18H24.1L27.1 12L30.1 6H36H41.9L45 11.5ZM60.1 12L64.2 18H59.7C55.3 18 55.1 17.9 52.1 12.7C50.5 9.9 49.1 7.2 49.1 6.7C49.1 6.3 50.7 6 52.6 6C55.7 6 56.4 6.6 60.1 12ZM21.6 32.6C23.6 37.3 25.1 41.4 24.9 41.6C24.7 41.8 21.5 37.9 17.8 33L11.1 24H14.5C17.8 24 18 24.2 21.6 32.6ZM47.7 25.8C45.5 32.6 36.3 54.1 35.8 53.4C35.4 52.7 30.4 40.4 24.4 25.2C24 24.3 26.7 24 36.1 24C47.3 24 48.2 24.1 47.7 25.8ZM58.9 27.2C57.6 29 54.5 33.1 52.1 36.3C49.8 39.5 47.7 41.9 47.5 41.7C47.3 41.5 48.8 37.5 50.8 32.7C54.5 24.2 54.6 24 57.9 24H61.3L58.9 27.2Z" fill="black"/>
</svg>
