<svg width="58" height="62" viewBox="0 0 58 62" fill="none" xmlns="http://www.w3.org/2000/svg">
<path d="M22.6798 0.538138C21.3798 0.838138 20.8798 2.03814 20.8798 4.63814C20.8798 7.93814 20.3798 8.63814 16.9798 10.4381C13.6798 12.2381 12.7798 12.3381 10.7798 11.2381C6.97982 9.13814 5.97982 9.53814 2.87982 14.5381C-0.820177 20.3381 -0.920177 23.1381 2.37982 24.6381C4.57982 25.6381 4.87982 26.4381 4.87982 30.8381C4.87982 35.2381 4.57982 36.0381 2.37982 37.0381C-0.920177 38.5381 -0.820177 41.3381 2.87982 47.1381C5.97982 52.1381 6.97982 52.5381 10.7798 50.4381C12.7798 49.3381 13.6798 49.4381 16.9798 51.2381C20.3798 53.0381 20.8798 53.7381 20.8798 56.9381C20.8798 60.9381 22.2798 61.8381 28.8798 61.8381C35.4798 61.8381 36.8798 60.9381 36.8798 56.9381C36.8798 53.7381 37.3798 53.0381 40.7798 51.2381C44.0798 49.4381 44.9798 49.3381 46.9798 50.4381C50.7798 52.5381 51.7798 52.1381 54.8798 47.1381C58.5798 41.3381 58.6798 38.5381 55.3798 37.0381C53.1798 36.0381 52.8798 35.2381 52.8798 30.8381C52.8798 26.4381 53.1798 25.6381 55.3798 24.6381C58.6798 23.1381 58.5798 20.3381 54.8798 14.5381C51.7798 9.53814 50.7798 9.13814 46.9798 11.2381C44.9798 12.3381 44.0798 12.2381 40.7798 10.4381C37.3798 8.63814 36.8798 7.93814 36.8798 4.73814C36.8798 1.73814 36.4798 0.938138 34.6798 0.438138C32.0798 -0.161862 25.2798 -0.161862 22.6798 0.538138ZM35.9798 23.7381C42.3798 30.2381 37.9798 40.8381 28.8798 40.8381C23.0798 40.8381 18.8798 36.6381 18.8798 30.8381C18.8798 21.7381 29.4798 17.3381 35.9798 23.7381Z" fill="black"/>
</svg>
