<svg width="32" height="32" viewBox="0 0 32 32" fill="none" xmlns="http://www.w3.org/2000/svg">
<g clip-path="url(#clip0)">
<path d="M14.2574 0.902881C13.0257 1.08955 11.6066 1.42288 10.7766 1.71621C5.44833 3.62288 1.51238 8.10288 0.320882 13.6229C0.0129675 15.0362 -0.0271953 18.3162 0.253944 19.6895C0.896549 22.9562 2.40935 25.7829 4.73879 28.1029C6.1311 29.4895 7.5368 30.4762 9.33074 31.3162C10.8435 32.0362 11.4192 32.1562 11.7807 31.8229C12.0216 31.6095 12.0484 31.4095 12.0484 29.9695V28.3562H10.4821C9.03621 28.3562 8.84878 28.3295 8.23295 27.9962C7.37615 27.5429 7.09501 27.2362 6.50595 26.0629C6.03739 25.1162 5.39478 24.3429 4.63169 23.8095C3.81505 23.2495 4.7254 22.8229 5.8098 23.2762C6.35869 23.5029 7.18872 24.2229 7.4297 24.6762C7.95181 25.6762 9.12992 26.4095 10.2143 26.4229C11.0042 26.4229 12.0618 26.1695 12.102 25.9695C12.276 25.3029 12.5304 24.6895 12.7981 24.3295L13.1194 23.9162L12.5438 23.8229C11.5263 23.6629 10.0403 23.2229 9.34412 22.8762C7.89826 22.1429 6.69338 20.6629 6.22481 19.0495C5.9169 17.9829 5.76963 16.1429 5.90351 15.0629C6.024 14.1162 6.58628 12.7429 7.12178 12.1029C7.44308 11.7295 7.44308 11.7029 7.26905 10.8495C7.12178 10.1829 7.12178 9.75621 7.22888 9.07621C7.45647 7.60955 7.52341 7.48955 8.21957 7.48955C8.95588 7.48955 9.94657 7.84955 11.1514 8.55621L12.0618 9.07621L13.0257 8.86288C14.3511 8.55621 17.7783 8.55621 19.1037 8.86288L20.081 9.07621L20.9779 8.54288C22.1828 7.84955 23.1735 7.48955 23.9098 7.48955C24.606 7.48955 24.6729 7.60955 24.9005 9.07621C25.0076 9.75621 25.0076 10.1829 24.8603 10.8495C24.6863 11.7029 24.6997 11.7295 25.0076 12.1029C25.9046 13.1962 26.266 14.3962 26.2527 16.2229C26.2393 18.7829 25.6101 20.5162 24.2044 21.8495C23.12 22.8629 21.7678 23.4362 19.4919 23.8229L18.9832 23.9029L19.2509 24.1962C19.9203 24.9029 20.0007 25.3695 20.0542 28.5562C20.0944 31.1162 20.1345 31.5962 20.322 31.7962C20.6433 32.1562 21.2859 32.0362 22.7853 31.3162C24.5926 30.4762 25.9983 29.4895 27.3906 28.1029C29.72 25.7829 31.2328 22.9562 31.8755 19.6895C32.1566 18.3162 32.1164 15.0362 31.8085 13.6229C30.4698 7.43621 25.7038 2.60955 19.5455 1.20955C18.4343 0.956215 15.1677 0.769548 14.2574 0.902881Z" fill="white"/>
</g>
<defs>
<clipPath id="clip0">
<rect width="32" height="32" fill="white"/>
</clipPath>
</defs>
</svg>
