<svg width="32" height="32" viewBox="0 0 32 32" fill="none" xmlns="http://www.w3.org/2000/svg">
<path d="M28.981 22.361C28.981 23.2304 28.8098 24.0912 28.4771 24.8944C28.1444 25.6975 27.6568 26.4273 27.042 27.042C26.4273 27.6568 25.6975 28.1444 24.8944 28.4771C24.0912 28.8098 23.2304 28.981 22.361 28.981H9.639C7.88327 28.981 6.19944 28.2835 4.95795 27.042C3.71646 25.8006 3.019 24.1167 3.019 22.361V9.638C3.019 7.88227 3.71646 6.19844 4.95795 4.95695C6.19944 3.71546 7.88327 3.018 9.639 3.018H22.361C24.1167 3.018 25.8006 3.71546 27.042 4.95695C28.2835 6.19844 28.981 7.88227 28.981 9.638V22.361V22.361ZM32 9.638C32 4.315 27.684 0 22.36 0H9.64C4.315 0 0 4.315 0 9.638V22.361C0 27.684 4.316 32 9.64 32H22.36C24.9167 32 27.3687 30.9844 29.1765 29.1765C30.9844 27.3687 32 24.9167 32 22.36V9.638ZM16.054 21.268C14.712 21.2664 13.4253 20.7326 12.4764 19.7836C11.5274 18.8347 10.9936 17.548 10.992 16.206C10.9936 14.864 11.5274 13.5773 12.4764 12.6284C13.4253 11.6794 14.712 11.1456 16.054 11.144C17.3961 11.1453 18.6829 11.6791 19.6319 12.6281C20.5809 13.5771 21.1147 14.8639 21.116 16.206C21.1147 17.5481 20.5809 18.8349 19.6319 19.7839C18.6829 20.7329 17.3961 21.2667 16.054 21.268V21.268ZM16.054 8.304C11.697 8.304 8.152 11.849 8.152 16.206C8.152 20.564 11.697 24.108 16.054 24.108C20.412 24.108 23.957 20.564 23.957 16.206C23.957 11.849 20.412 8.304 16.054 8.304V8.304ZM24.418 5.891C24.1709 5.891 23.9263 5.93967 23.698 6.03422C23.4697 6.12877 23.2623 6.26737 23.0876 6.44208C22.9129 6.61679 22.7743 6.82421 22.6797 7.05248C22.5852 7.28076 22.5365 7.52542 22.5365 7.7725C22.5365 8.01958 22.5852 8.26424 22.6797 8.49252C22.7743 8.72079 22.9129 8.92821 23.0876 9.10292C23.2623 9.27763 23.4697 9.41623 23.698 9.51078C23.9263 9.60533 24.1709 9.654 24.418 9.654C24.917 9.654 25.3956 9.45577 25.7484 9.10292C26.1013 8.75007 26.2995 8.2715 26.2995 7.7725C26.2995 7.2735 26.1013 6.79493 25.7484 6.44208C25.3956 6.08923 24.917 5.891 24.418 5.891V5.891Z" fill="white"/>
</svg>
