<svg width="32" height="32" viewBox="0 0 32 32" fill="none" xmlns="http://www.w3.org/2000/svg">
<path d="M2.64032 0.0836173C2.15975 0.196917 1.44173 0.593464 1.10251 0.927696C0.226182 1.78311 -0.15827 3.05772 0.0791856 4.30968C0.19226 4.8875 0.339256 5.25573 0.644557 5.6806C0.966818 6.12813 1.25516 6.38305 1.75268 6.64364C2.27283 6.91556 2.7647 7.02319 3.52795 7.02319C4.65304 7.01753 5.43325 6.72295 6.11169 6.04882C6.75622 5.40868 7.06717 4.59293 7.06717 3.53358C7.06717 1.80577 6.08343 0.434845 4.57389 0.0779524C4.12159 -0.0296819 3.08696 -0.0240169 2.64032 0.0836173Z" fill="white"/>
<path d="M0.039576 8.92662C0.0169611 8.94361 0 14.144 0 20.4831V32H3.53357H7.06714V20.4435V8.88697H3.57315C1.65088 8.88697 0.0565371 8.90396 0.039576 8.92662Z" fill="white"/>
<path d="M23.4347 9.35149C21.9591 9.43646 20.4891 9.92365 19.3414 10.7167C18.7873 11.102 17.9675 11.8951 17.6114 12.3936C17.4587 12.6088 17.3004 12.7901 17.2665 12.7901C17.2269 12.7958 17.1873 12.6372 17.1704 12.4106C17.1534 12.201 17.0912 11.5155 17.0403 10.881L16.9442 9.73671H13.7216H10.5046L10.5386 10.7677C10.646 13.8665 10.6856 17.2824 10.6856 24.2503V32H14.2191H17.7527V25.4117C17.7527 17.8886 17.7301 18.2568 18.2333 17.2201C18.7138 16.2288 19.2735 15.5943 19.969 15.2487C20.5004 14.9881 20.8396 14.9315 21.5633 14.9655C22.5527 15.0108 23.1011 15.26 23.7287 15.9342C24.2488 16.4893 24.5428 17.1182 24.7803 18.1775C24.8933 18.7043 24.899 18.8403 24.9159 25.355L24.9386 32H28.4665H32V25.0151C32 20.6021 31.9774 17.7979 31.9379 17.3844C31.7004 14.7672 30.8297 12.6825 29.3937 11.2946C27.8785 9.83301 25.9675 9.2042 23.4347 9.35149Z" fill="white"/>
</svg>
