<svg width="73" height="65" viewBox="0 0 73 65" fill="none" xmlns="http://www.w3.org/2000/svg">
<path d="M2.01629 1.9999C0.116288 3.8999 0.0162881 5.2999 0.0162881 25.9999C0.0162881 53.7999 -1.18371 51.9999 17.0163 51.9999C24.2163 51.9999 30.0163 52.1999 30.0163 52.3999C30.0163 52.6999 29.6163 53.9999 29.0163 55.3999C28.2163 57.6999 27.5163 57.9999 23.1163 57.9999C17.5163 57.9999 14.9163 59.8999 17.0163 62.4999C18.8163 64.6999 53.2163 64.6999 55.0163 62.4999C57.1163 59.8999 54.5163 57.9999 48.9163 57.9999C44.5163 57.9999 43.8163 57.6999 43.0163 55.3999C42.4163 53.9999 42.0163 52.6999 42.0163 52.3999C42.0163 52.1999 47.9163 51.9999 55.0163 51.9999C73.2163 51.9999 72.0163 53.7999 72.0163 25.9999C72.0163 5.2999 71.9163 3.8999 70.0163 1.9999C68.1163 0.0999014 66.7163 -9.86122e-05 36.0163 -9.86122e-05C5.31629 -9.86122e-05 3.91629 0.0999014 2.01629 1.9999ZM64.0163 25.9999V43.9999H36.0163H8.01629V25.9999V7.9999H36.0163H64.0163V25.9999Z" fill="black"/>
</svg>
